<?xml version="1.0" standalone="no"?>
<svg viewBox="0 0 200 200" xmlns="http://www.w3.org/2000/svg">
  <mask id="mask0" mask-type="alpha">
    <path fill="#8A3FFC" d="M34.3,-49.6C44.5,-39.8,52.9,-29.9,56.2,-18.5C59.4,-7.2,57.7,5.5,51.8,14.8C45.9,24,36,29.9,26.7,34.7C17.3,39.4,8.7,43,-4,48.6C-16.7,54.2,-33.5,61.6,-48.2,58.7C-63,55.7,-75.7,42.2,-76.2,27.8C-76.7,13.4,-65,-2,-59.4,-19.4C-53.8,-36.8,-54.4,-56.2,-45.5,-66.4C-36.7,-76.5,-18.3,-77.3,-3.1,-73C12.1,-68.7,24.1,-59.3,34.3,-49.6Z" transform="translate(100 100)" />
  </mask>
  <g mask="url(#mask0)">
    <path fill="#8A3FFC" d="M34.3,-49.6C44.5,-39.8,52.9,-29.9,56.2,-18.5C59.4,-7.2,57.7,5.5,51.8,14.8C45.9,24,36,29.9,26.7,34.7C17.3,39.4,8.7,43,-4,48.6C-16.7,54.2,-33.5,61.6,-48.2,58.7C-63,55.7,-75.7,42.2,-76.2,27.8C-76.7,13.4,-65,-2,-59.4,-19.4C-53.8,-36.8,-54.4,-56.2,-45.5,-66.4C-36.7,-76.5,-18.3,-77.3,-3.1,-73C12.1,-68.7,24.1,-59.3,34.3,-49.6Z" transform="translate(100 100)" />
    <image xlink:href="">
  </g>
</svg>
